<?xml version="1.0" standalone="no"?>
<!DOCTYPE svg PUBLIC "-//W3C//DTD SVG 20010904//EN"
 "http://www.w3.org/TR/2001/REC-SVG-20010904/DTD/svg10.dtd">
<svg version="1.0" xmlns="http://www.w3.org/2000/svg"
 width="700.000000pt" height="700.000000pt" viewBox="0 0 700.000000 700.000000"
 preserveAspectRatio="xMidYMid meet">
<metadata>
Created by potrace 1.14, written by Peter Selinger 2001-2017
</metadata>
<g transform="translate(0.000000,700.000000) scale(0.100000,-0.100000)"
fill="#000000" stroke="none">
<path d="M0 3500 l0 -3500 3500 0 3500 0 0 3500 0 3500 -3500 0 -3500 0 0
-3500z m3767 2160 c752 -67 1321 -533 1497 -1227 41 -160 68 -143 -226 -143
l-253 0 -18 71 c-39 158 -133 329 -252 457 -121 131 -312 250 -491 306 -155
48 -246 60 -434 60 -152 0 -189 -4 -285 -26 -196 -46 -350 -118 -502 -234
-231 -177 -417 -478 -503 -811 -114 -446 -86 -1061 67 -1435 216 -533 634
-841 1173 -865 570 -25 1051 279 1209 765 17 52 31 102 31 113 0 18 11 19 255
19 297 0 270 17 229 -143 -139 -548 -529 -965 -1067 -1142 -304 -99 -670 -120
-989 -55 -813 166 -1369 860 -1459 1822 -16 172 -7 616 16 758 82 520 282 933
598 1237 368 353 866 521 1404 473z"/>
</g>
</svg>
